<svg width="30" height="30" viewBox="0 0 30 30" fill="none" xmlns="http://www.w3.org/2000/svg">
<path fill-rule="evenodd" clip-rule="evenodd" d="M28.125 3.75C28.125 2.71447 27.2855 1.875 26.25 1.875H3.75C2.71447 1.875 1.875 2.71447 1.875 3.75V26.25C1.875 27.2855 2.71447 28.125 3.75 28.125H26.25C27.2855 28.125 28.125 27.2855 28.125 26.25V3.75ZM0 3.75C0 1.67893 1.67893 0 3.75 0H26.25C28.3211 0 30 1.67893 30 3.75V26.25C30 28.3211 28.3211 30 26.25 30H3.75C1.67893 30 0 28.3211 0 26.25V3.75ZM15.9375 8.4375C15.9375 7.91973 15.5178 7.5 15 7.5C14.4822 7.5 14.0625 7.91973 14.0625 8.4375V19.2992L10.0379 15.2746C9.6718 14.9085 9.0782 14.9085 8.71209 15.2746C8.34597 15.6407 8.34597 16.2343 8.71209 16.6004L14.3371 22.2254C14.7032 22.5915 15.2968 22.5915 15.6629 22.2254L21.2879 16.6004C21.654 16.2343 21.654 15.6407 21.2879 15.2746C20.9218 14.9085 20.3282 14.9085 19.9621 15.2746L15.9375 19.2992V8.4375Z" fill="white"/>
</svg>
